<svg xmlns="http://www.w3.org/2000/svg" width="560" height="150" viewBox="0 0 560 150" role="img" aria-label="太平洋证券 PACIFIC SECURITIES">
  <rect width="560" height="150" fill="none"/>
  <g transform="translate(0 6)">
    <path d="M69 0C31 0 0 31 0 69c0 31 21 58 50 66C25 119 10 95 10 69 10 36 36 10 69 10c16 0 31 6 42 16C99 10 84 0 69 0Z" fill="#E60012"/>
    <path d="M69 25c24 0 44 20 44 44s-20 44-44 44c-17 0-32-10-39-24 9 8 22 13 36 13 18 0 33-15 33-33S84 36 66 36c-15 0-28 10-32 24 4-20 21-35 35-35Z" fill="#1D2088"/>
    <path d="M67 48c12 0 21 9 21 21S79 90 67 90c-8 0-15-4-19-11 5 3 12 3 17 0 6-4 8-12 4-18-4-6-12-8-18-4 4-6 10-9 16-9Z" fill="#1D2088"/>
  </g>
  <g fill="#1D2088" transform="translate(132 16)">
    <text x="0" y="58" font-family="PingFang SC, Microsoft YaHei, sans-serif" font-size="66" font-weight="950" letter-spacing="6">太平洋证券</text>
    <text x="3" y="116" font-family="Arial, Helvetica, sans-serif" font-size="34" font-weight="700" letter-spacing="7">PACIFIC SECURITIES</text>
  </g>
</svg>
